HIERARCHY
ROOT root
{
	OFFSET 0.000000 0.000000 0.000000
	CHANNELS 6 Xposition Yposition Zposition Zrotation Yrotation Xrotation
	JOINT lhip
	{
		OFFSET 0.058581 -0.082280 -0.017664
		CHANNELS 3 Zrotation Yrotation Xrotation
		JOINT lknee
		{
			OFFSET 0.043451 -0.386469 0.008037
			CHANNELS 3 Zrotation Yrotation Xrotation
			JOINT lankle
			{
				OFFSET -0.014790 -0.426874 -0.037428
				CHANNELS 3 Zrotation Yrotation Xrotation
				JOINT ltoe
				{
					OFFSET 0.041054 -0.060286 0.122042
					CHANNELS 3 Zrotation Yrotation Xrotation
					End Site
					{
						OFFSET 0.000000 0.000000 0.000000
					}
				}
			}
		}
	}
	JOINT rhip
	{
		OFFSET -0.060310 -0.090513 -0.013543
		CHANNELS 3 Zrotation Yrotation Xrotation
		JOINT rknee
		{
			OFFSET -0.043257 -0.383688 -0.004843
			CHANNELS 3 Zrotation Yrotation Xrotation
			JOINT rankle
			{
				OFFSET 0.019056 -0.420046 -0.034562
				CHANNELS 3 Zrotation Yrotation Xrotation
				JOINT rtoe
				{
					OFFSET -0.034840 -0.062106 0.130323
					CHANNELS 3 Zrotation Yrotation Xrotation
					End Site
					{
						OFFSET 0.000000 0.000000 0.000000
					}
				}
			}
		}
	}
	JOINT lowerback
	{
		OFFSET 0.004439 0.124404 -0.038385
		CHANNELS 3 Zrotation Yrotation Xrotation
		JOINT upperback
		{
			OFFSET 0.004488 0.137956 0.026820
			CHANNELS 3 Zrotation Yrotation Xrotation
			JOINT chest
			{
				OFFSET -0.002265 0.056032 0.002855
				CHANNELS 3 Zrotation Yrotation Xrotation
				JOINT lowerneck
				{
					OFFSET -0.013390 0.211636 -0.033468
					CHANNELS 3 Zrotation Yrotation Xrotation
					JOINT upperneck
					{
						OFFSET 0.010113 0.088937 0.050410
						CHANNELS 3 Zrotation Yrotation Xrotation
						End Site
						{
							OFFSET 0.000000 0.000000 0.000000
						}
					}
				}
				JOINT lclavicle
				{
					OFFSET 0.071702 0.114000 -0.018898
					CHANNELS 3 Zrotation Yrotation Xrotation
					JOINT lshoulder
					{
						OFFSET 0.122921 0.045205 -0.019046
						CHANNELS 3 Zrotation Yrotation Xrotation
						JOINT lelbow
						{
							OFFSET 0.255332 -0.015649 -0.022946
							CHANNELS 3 Zrotation Yrotation Xrotation
							JOINT lwrist
							{
								OFFSET 0.265709 0.012698 -0.007375
								CHANNELS 3 Zrotation Yrotation Xrotation
								End Site
								{
									OFFSET 0.000000 0.000000 0.000000
								}
							}
						}
					}
				}
				JOINT rclavicle
				{
					OFFSET -0.082954 0.112472 -0.023707
					CHANNELS 3 Zrotation Yrotation Xrotation
					JOINT rshoulder
					{
						OFFSET -0.113228 0.046853 -0.008472
						CHANNELS 3 Zrotation Yrotation Xrotation
						JOINT relbow
						{
							OFFSET -0.260127 -0.014369 -0.031269
							CHANNELS 3 Zrotation Yrotation Xrotation
							JOINT rwrist
							{
								OFFSET -0.269108 0.006794 -0.006027
								CHANNELS 3 Zrotation Yrotation Xrotation
								End Site
								{
									OFFSET 0.000000 0.000000 0.000000
								}
							}
						}
					}
				}
			}
		}
	}
}
MOTION
Frames: 10
Frame Time: 0.033333
0.072551 0.284795 0.940506 -177.018168 0.012963 94.996603 7.729621 4.835324 -24.702305 -8.517324 -2.012129 38.081391 1.672502 4.747833 -24.655835 0.000000 -0.000000 0.000000 -7.656191 -6.059598 -31.723552 1.149414 -6.944440 42.447416 4.954008 -4.851093 -20.626202 0.000000 -0.000000 0.000000 0.973573 0.424609 40.804644 0.532805 -1.123324 -5.519207 1.750682 -1.827718 -1.306928 -3.502406 0.848326 -15.396826 -2.036529 -3.704173 3.065180 -30.819072 -11.301732 4.691547 -44.565259 -11.899724 9.586004 9.406097 -40.491866 -9.309066 12.781293 -14.304268 -19.367652 28.360625 16.899263 2.960639 37.827293 11.312822 7.527306 -15.602772 32.420389 -29.060623 -7.536982 14.925953 -24.093581 
0.072262 0.284737 0.940205 -177.024163 0.031223 94.989598 7.740972 4.862120 -24.720896 -8.494070 -1.910330 38.076980 1.610516 4.731912 -24.648438 0.000000 -0.000000 0.000000 -7.619313 -6.046664 -31.768149 1.123526 -6.874938 42.511281 4.834034 -4.962901 -20.646564 0.000000 -0.000000 0.000000 1.004655 0.452234 40.599773 0.541220 -1.163025 -5.377205 1.750215 -1.834891 -1.254000 -3.502019 0.883265 -15.449071 -1.964516 -3.800841 2.722253 -30.913597 -11.397337 4.797427 -44.638002 -11.968926 9.589665 9.397863 -40.231183 -9.415203 13.070825 -14.346693 -19.516171 28.430067 16.932769 3.006790 37.720070 11.387534 7.493662 -15.499472 32.453412 -28.954994 -7.985748 15.187500 -24.206411 
0.072071 0.284499 0.940192 -177.192342 0.000506 95.067606 7.726879 4.839970 -24.741628 -8.460992 -1.740297 38.003753 1.606813 4.764656 -24.670245 0.000000 -0.000000 0.000000 -7.645091 -5.908129 -31.918487 1.144571 -6.761165 42.543891 4.895838 -4.915935 -20.625385 0.000000 -0.000000 0.000000 0.990059 0.575781 40.537489 0.469998 -1.136695 -5.403027 1.715354 -1.879348 -1.207515 -3.439504 0.965627 -15.763181 -1.972800 -3.830922 2.509347 -30.875782 -11.360953 4.669392 -44.822028 -12.008767 9.634821 9.414062 -40.019109 -9.460591 12.755990 -14.523324 -19.481105 28.424994 16.929049 2.908714 37.857427 11.460913 7.641117 -15.613374 32.353531 -29.070027 -7.726802 15.157120 -24.012038 
0.071761 0.284650 0.940093 -177.238962 0.024173 95.049714 7.708243 4.967369 -24.687320 -8.436882 -1.740539 37.999982 1.583647 4.662234 -24.717511 0.000000 -0.000000 0.000000 -7.642282 -5.893877 -31.912056 1.066223 -6.848795 42.593208 4.879363 -4.840327 -20.661221 0.000000 -0.000000 0.000000 0.967597 0.574493 40.480054 0.452954 -1.105213 -5.344896 1.766988 -1.853396 -1.214713 -3.455843 1.080973 -15.985123 -1.967796 -3.767078 2.053524 -30.926610 -11.418534 4.644906 -44.975577 -11.979347 9.623679 9.363282 -39.812903 -9.442319 12.932386 -14.642688 -19.280924 28.282565 16.962934 2.801524 38.037097 11.341158 7.723865 -15.611484 32.426352 -29.087084 -7.994124 15.191076 -24.171092 
0.071499 0.284446 0.939977 -177.295076 0.019927 95.056025 7.685402 4.956102 -24.681707 -8.486700 -1.797735 38.053722 1.663914 4.704002 -24.717990 0.000000 -0.000000 0.000000 -7.666870 -5.837257 -31.942191 1.085160 -6.818441 42.601178 4.907781 -4.857826 -20.627793 0.000000 -0.000000 0.000000 0.921907 0.578298 40.407838 0.406160 -1.108673 -5.260884 1.750453 -1.842243 -1.200308 -3.393225 1.221818 -16.427417 -1.921933 -3.585913 1.837810 -30.776552 -11.410031 4.588902 -45.197861 -11.926458 9.694467 9.253643 -39.834985 -9.380553 13.279068 -14.497683 -19.426253 28.210894 17.076576 2.804474 38.226934 11.325246 7.899103 -15.755239 32.440849 -29.222478 -8.345564 15.207172 -24.282078 
0.071118 0.285092 0.940118 -177.084673 0.070893 94.914446 7.660785 4.902352 -24.501763 -8.460834 -2.013312 38.046354 1.639255 4.625138 -24.714989 0.000000 -0.000000 0.000000 -7.583404 -6.189574 -31.646976 1.055344 -6.782477 42.539039 4.773096 -4.767798 -20.686739 0.000000 -0.000000 0.000000 1.028487 0.424014 40.424891 0.436570 -1.185772 -5.134215 1.726337 -1.822934 -1.319101 -3.376095 1.123731 -16.389458 -1.741470 -3.374069 1.251063 -30.961869 -11.497574 4.596654 -45.110438 -11.761817 9.720933 9.100279 -39.773569 -9.222758 13.372003 -14.380660 -19.540699 28.343238 17.129520 2.855290 38.114834 11.132165 7.841911 -15.702858 32.690869 -29.157946 -8.581096 15.137899 -24.218729 
0.070758 0.285168 0.940062 -177.153158 0.060057 94.915827 7.594115 4.844950 -24.428258 -8.421968 -2.051815 38.012394 1.678430 4.733755 -24.766521 0.000000 -0.000000 0.000000 -7.597108 -6.201760 -31.655775 1.072696 -6.702135 42.510153 4.859773 -4.759964 -20.632867 0.000000 -0.000000 0.000000 1.045566 0.429068 40.387830 0.382544 -1.210494 -5.164612 1.704334 -1.823851 -1.281356 -3.372087 1.128296 -16.608578 -1.784271 -3.189440 0.926387 -30.934395 -11.515214 4.500905 -45.230303 -11.732020 9.750003 9.066541 -39.741307 -9.230436 13.370469 -14.280347 -19.606590 28.296627 17.181313 2.843883 38.255665 11.096270 7.928581 -15.883684 32.810439 -29.294240 -8.635659 15.243910 -24.189984 
0.070521 0.285011 0.939976 -177.131072 0.110782 94.994976 7.599619 4.821431 -24.533520 -8.326413 -1.914182 37.974918 1.667639 4.760776 -24.790092 0.000000 -0.000000 0.000000 -7.552724 -6.180160 -31.754223 1.016810 -6.748279 42.511028 4.843151 -4.710217 -20.668666 0.000000 -0.000000 0.000000 1.047913 0.421877 40.303832 0.388227 -1.205310 -5.353202 1.732700 -1.851183 -1.221301 -3.279921 1.135110 -16.603966 -1.744229 -3.047939 0.538589 -30.900782 -11.444635 4.412469 -45.410320 -11.793127 9.804665 8.871998 -39.583483 -9.016351 13.583415 -14.213605 -19.609003 28.211082 17.090140 2.832013 38.329769 11.166713 7.988767 -15.728041 32.935101 -29.090073 -9.131354 15.338193 -24.320103 
0.070336 0.285166 0.939929 -177.141581 0.111653 95.024806 7.584841 4.809207 -24.547216 -8.337400 -1.960195 38.075468 1.724821 4.669587 -24.815903 0.000000 -0.000000 0.000000 -7.530135 -6.180028 -31.832335 0.998042 -6.685217 42.578219 4.855830 -4.763014 -20.672289 0.000000 -0.000000 0.000000 1.040632 0.479376 40.328778 0.361345 -1.163534 -5.596042 1.766565 -1.946233 -1.194244 -3.264288 1.138693 -16.800211 -1.653683 -2.991292 0.290751 -30.861823 -11.445863 4.411044 -45.581414 -11.752908 9.890336 8.828323 -39.460449 -8.941483 13.837095 -14.260485 -19.684250 28.169026 16.966080 2.734706 38.451916 11.169290 8.050546 -15.611339 32.961265 -28.885237 -9.200995 15.212056 -24.388348 
0.070108 0.285238 0.939885 -177.090100 0.151349 94.993578 7.585966 4.749356 -24.540560 -8.326444 -2.034512 38.171846 1.717053 4.764538 -24.851829 0.000000 -0.000000 0.000000 -7.495594 -6.238774 -31.796113 0.970306 -6.695880 42.594054 4.880438 -4.681188 -20.679752 0.000000 -0.000000 0.000000 1.070712 0.448417 40.239194 0.352246 -1.176176 -5.595839 1.790673 -1.920084 -1.132240 -3.285366 0.992251 -16.902045 -1.545313 -3.020746 -0.146623 -30.920406 -11.523183 4.324215 -45.632377 -11.783554 9.954844 8.720004 -39.252363 -8.818806 14.038550 -14.295025 -19.544894 28.163943 17.016610 2.649266 38.447553 11.229364 7.933822 -15.476187 32.831545 -28.852649 -9.169102 15.199740 -24.331024 
